<?xml version="1.0" standalone="no"?>
<!DOCTYPE svg PUBLIC "-//W3C//DTD SVG 1.1//EN" "http://www.w3.org/Graphics/SVG/1.1/DTD/svg11.dtd" >
<svg xmlns="http://www.w3.org/2000/svg">
<metadata>
Created by FontForge 20120731 at Fri Jun 24 11:19:24 2016
 By admin
</metadata>
<defs>
<font id="iconfont" horiz-adv-x="1024" >
  <font-face 
    font-family="iconfont"
    font-weight="500"
    font-stretch="normal"
    units-per-em="1024"
    panose-1="2 0 6 3 0 0 0 0 0 0"
    ascent="896"
    descent="-128"
    x-height="792"
    bbox="-1.3913 -212.595 1905 896"
    underline-thickness="50"
    underline-position="-100"
    unicode-range="U+0078-E638"
  />
<missing-glyph horiz-adv-x="374" 
d="M34 0v682h272v-682h-272zM68 34h204v614h-204v-614z" />
    <glyph glyph-name=".notdef" horiz-adv-x="374" 
d="M34 0v682h272v-682h-272zM68 34h204v614h-204v-614z" />
    <glyph glyph-name=".null" horiz-adv-x="0" 
 />
    <glyph glyph-name="nonmarkingreturn" horiz-adv-x="341" 
 />
    <glyph glyph-name="x" unicode="x" horiz-adv-x="1001" 
d="M281 543q-27 -1 -53 -1h-83q-18 0 -36.5 -6t-32.5 -18.5t-23 -32t-9 -45.5v-76h912v41q0 16 -0.5 30t-0.5 18q0 13 -5 29t-17 29.5t-31.5 22.5t-49.5 9h-133v-97h-438v97zM955 310v-52q0 -23 0.5 -52t0.5 -58t-10.5 -47.5t-26 -30t-33 -16t-31.5 -4.5q-14 -1 -29.5 -0.5
t-29.5 0.5h-32l-45 128h-439l-44 -128h-29h-34q-20 0 -45 1q-25 0 -41 9.5t-25.5 23t-13.5 29.5t-4 30v167h911zM163 247q-12 0 -21 -8.5t-9 -21.5t9 -21.5t21 -8.5q13 0 22 8.5t9 21.5t-9 21.5t-22 8.5zM316 123q-8 -26 -14 -48q-5 -19 -10.5 -37t-7.5 -25t-3 -15t1 -14.5
t9.5 -10.5t21.5 -4h37h67h81h80h64h36q23 0 34 12t2 38q-5 13 -9.5 30.5t-9.5 34.5q-5 19 -11 39h-368zM336 498v228q0 11 2.5 23t10 21.5t20.5 15.5t34 6h188q31 0 51.5 -14.5t20.5 -52.5v-227h-327z" />
    <glyph glyph-name="uniE600" unicode="&#xe600;" 
d="M816 180l-304 303l-303 -303l55 -55l248 249l249 -249z" />
    <glyph glyph-name="uniE601" unicode="&#xe601;" 
d="M1010 73l-474 474v1h-1q-10 10 -23 10t-23 -10h-1v-1l-474 -474q-9 -9 -9 -22.5t9.5 -23t22.5 -9.5t23 10l452 452l452 -452q10 -10 23 -10t22.5 9.5t9.5 23t-9 22.5z" />
    <glyph glyph-name="uniE602" unicode="&#xe602;" horiz-adv-x="1906" 
d="M953 669l-882 -881l-71 71l953 953l952 -953l-71 -71z" />
    <glyph glyph-name="uniE603" unicode="&#xe603;" 
d="M880 62q14 -14 35 -14t36 14q15 15 15 36t-15 36l-403 404q-15 14 -36 14t-36 -14l-403 -404q-15 -15 -15 -36t15 -36q15 -14 35.5 -14t35.5 14l368 368z" />
    <glyph glyph-name="uniE604" unicode="&#xe604;" 
d="M513 747q-91 0 -174 -35.5t-143 -95.5t-95.5 -143t-35.5 -174.5t35.5 -174.5t95.5 -143t143 -95.5t174 -35.5t174 35.5t143 95.5t95.5 143t35.5 174.5t-35.5 174.5t-95.5 143t-143 95.5t-174 35.5zM513 -91q-106 0 -195.5 52t-141.5 142t-52 195.5t52 195t141.5 142
t195.5 52.5t195.5 -52.5t141.5 -142t52 -195t-52 -195.5t-141.5 -142t-195.5 -52zM513 298zM169 298.5q0 93.5 46 173t125.5 125.5t173 46t172.5 -46t125.5 -125.5t46.5 -173t-46.5 -173t-125.5 -125.5t-172.5 -46t-173 46t-125.5 125.5t-46 173z" />
    <glyph glyph-name="uniE605" unicode="&#xe605;" 
d="M493 -199l-29 34q-21 26 -48.5 59.5t-82 109.5t-96 144.5t-74 147.5t-32.5 135q0 103 48.5 191t132 139t181.5 51t181.5 -51t132 -139t48.5 -191q0 -56 -32.5 -135t-73.5 -147.5t-96 -144.5t-82 -109.5t-49 -59.5zM493 736q-118 0 -201.5 -89.5t-83.5 -215.5
q0 -46 29.5 -115.5t76.5 -144t91 -136t88 -115.5q44 54 88 115.5t91.5 136t77 144t29.5 115.5q0 126 -84 215.5t-202 89.5zM490 440zM366 440.5q0 51.5 36.5 87.5t87.5 36t87.5 -36t36.5 -87.5t-36.5 -87.5t-87.5 -36t-87.5 36t-36.5 87.5z" />
    <glyph glyph-name="uniE606" unicode="&#xe606;" horiz-adv-x="1679" 
d="M1678 493zM518 581q-91 0 -156 -63.5t-65 -153.5q0 -41 29.5 -105.5t68 -119.5t74.5 -95t49 -40t49.5 40t74.5 95t68 119.5t30 105.5q0 90 -65 153.5t-157 63.5zM518 220q-61 0 -104 42.5t-43 102t43 102t104.5 42.5t104.5 -42.5t43 -102t-43 -102t-105 -42.5zM518 437
q31 0 52.5 -21.5t21.5 -51t-21.5 -51t-52 -21.5t-52 21.5t-21.5 51t21.5 51t51.5 21.5zM518 437z" />
    <glyph glyph-name="uniE607" unicode="&#xe607;" 
d="M509.5 731q-88.5 0 -169 -34.5t-139 -93t-93 -139t-34.5 -169t34.5 -169t93 -139t139 -93t169 -34.5t169 34.5t139 93t93 139t34.5 169t-34.5 169t-93 139t-139 93t-169 34.5zM510 -92q-105 0 -194.5 52t-141.5 141.5t-52 194.5t52 194t141.5 141t194.5 52t194 -52
t141 -141t52 -194t-52 -194.5t-141 -141.5t-194 -52zM510 288zM236 288.5q0 113.5 80 193.5t193.5 80t194 -80t80.5 -193.5t-80.5 -194t-194 -80.5t-193.5 80.5t-80 194z" />
    <glyph glyph-name="uniE608" unicode="&#xe608;" 
d="M880 221q-5 0 -11 1v-1h-714v1q-6 -1 -11 -1q-32 0 -55 23t-23 55.5t23 55t55 22.5q5 0 11 -1v1h714v-1q6 1 11 1q33 0 55.5 -22.5t22.5 -55t-22.5 -55.5t-55.5 -23z" />
    <glyph glyph-name="uniE609" unicode="&#xe609;" 
d="M512 742q-139 0 -257 -50t-186.5 -135.5t-68.5 -186.5q0 -83 47 -157t134 -127q-10 -29 -24 -54t-24 -36.5t-28 -31.5q-9 -10 -15 -16l-3 -4q-20 -23 -16 -44v-3q3 -17 16 -28t30 -11h5q37 5 65 13q143 37 253 131q38 -4 72 -4q139 0 256.5 50t186 135.5t69 186.5
t-68.5 186.5t-186.5 135.5t-256.5 50zM259 274q-37 0 -63 26t-26 63t26 63t63 26t63 -26t26 -63t-26 -63t-63 -26zM492 274q-37 0 -63 26t-26 63t26 63t63 26t63 -26t26 -63t-26 -63t-63 -26zM718.5 276q-36.5 0 -62.5 26t-26 62.5t26 63t62.5 26.5t62.5 -26.5t26 -63
t-26 -62.5t-62.5 -26z" />
    <glyph glyph-name="uniE60A" unicode="&#xe60a;" 
d="M773 180q18 0 31 12.5t13 31.5q0 21 -17 34q-52 41 -112 64q40 34 62.5 81.5t22.5 102.5q0 100 -71 171t-171.5 71t-171.5 -71t-71 -171q0 -55 22.5 -102.5t62.5 -81.5q-126 -49 -204.5 -160.5t-78.5 -250.5q0 -19 13 -31.5t31 -12.5t31 12.5t13 31.5q0 95 47 176.5
t128.5 128.5t176.5 47q118 0 213 -72q12 -11 30 -11zM530.5 351q-63.5 0 -109 45.5t-45.5 109t45.5 109t109 45.5t109 -45.5t45.5 -109t-45.5 -109t-109 -45.5zM611 72.5q0 -18.5 13 -31.5t31 -13h235q18 0 31 13t13 31.5t-13 31t-31 12.5h-235q-18 0 -31 -12.5t-13 -31z
M890 -60h-235q-18 0 -31 -13t-13 -31t13 -31t31 -13h235q18 0 31 13t13 31t-13 31t-31 13z" />
    <glyph glyph-name="uniE60B" unicode="&#xe60b;" 
d="M305.5 -173q-22.5 0 -40.5 11.5t-28 31.5l-56 123q-74 17 -122.5 77t-48.5 137v356q0 90 64 154.5t155 64.5q14 0 23.5 -10t9.5 -23.5t-9.5 -23t-23.5 -9.5q-63 0 -108 -45t-45 -108v-356q0 -57 38 -100.5t95 -51.5l18 -2l70 -155q3 -7 8.5 -7t8.5 7l71 156h413
q64 0 108.5 45t44.5 108v356q0 63 -44.5 108t-108.5 45h-403q-14 0 -23.5 9.5t-9.5 23t9.5 23.5t23.5 10h403q91 0 155 -64.5t64 -154.5v-356q0 -91 -64 -155t-155 -64h-371l-53 -118q-9 -20 -27.5 -31.5t-41 -11.5zM514 374zM462 373.5q0 21.5 15 37t36.5 15.5t37 -15.5
t15.5 -37t-15.5 -36.5t-37 -15t-36.5 15t-15 36.5zM738 374zM686 373.5q0 21.5 15 37t37 15.5t37 -15.5t15 -37t-15 -36.5t-37 -15t-37 15t-15 36.5zM280 374zM228 373.5q0 21.5 15 37t36.5 15.5t37 -15.5t15.5 -37t-15.5 -36.5t-37 -15t-36.5 15t-15 36.5z" />
    <glyph glyph-name="uniE60C" unicode="&#xe60c;" 
d="M617 289q57 32 91.5 88.5t34.5 124.5q0 100 -71 171t-170.5 71t-170 -71t-70.5 -171.5t70.5 -171.5t170.5 -71q3 0 8 1q1 -1 2 -1q95 0 179.5 -40.5t137 -108.5t59.5 -145h-752q6 77 54.5 143.5t127.5 106.5q8 4 10.5 12t-1 16t-12 10.5t-16.5 -1.5q-95 -48 -150.5 -130
t-55.5 -178v-21h838v21q0 118 -90 215.5t-224 129.5zM501.5 302q-82.5 0 -141 58.5t-58.5 141t58.5 141t141 58.5t141 -58.5t58.5 -141t-58.5 -141t-141 -58.5z" />
    <glyph glyph-name="uniE60D" unicode="&#xe60d;" 
d="M679 491h191q10 0 17 7t7 17t-7 17t-17 7h-191q-10 0 -17 -7t-7 -17t7 -17t17 -7zM870 253h-143q-10 0 -17 -7t-7 -17t7 -17t17 -7h143q10 0 17 7t7 17t-7 17t-17 7zM870 109h-143q-10 0 -17 -6.5t-7 -16.5t7 -17t17 -7h143q10 0 17 7t7 17t-7 16.5t-17 6.5zM559 292
q48 66 48 151q0 99 -62.5 169t-151.5 70t-152 -70t-63 -169q0 -85 49 -151q-43 -15 -70 -51.5t-27 -83.5v-95q0 -60 42 -101.5t101 -41.5h239q59 0 101 41.5t42 101.5v95q0 47 -27 83.5t-69 51.5zM226 443q0 79 49 135t118 56t118 -56t49 -135t-49 -134.5t-118 -55.5
t-118 55.5t-49 134.5zM607 74q0 -45 -34 -76.5t-83 -31.5h-195q-48 0 -82.5 31.5t-34.5 76.5v71q0 38 25.5 67t64.5 37q56 -44 124.5 -44t124.5 44q39 -8 64.5 -37t25.5 -67v-71zM870 396h-191q-10 0 -17 -7t-7 -17t7 -17t17 -7h191q10 0 17 7t7 17t-7 17t-17 7z" />
    <glyph glyph-name="uniE60E" unicode="&#xe60e;" 
d="M826 -147h-134q-56 0 -95 39t-39 94v134q0 56 39 95t95 39h134q55 0 94 -39t39 -95v-134q0 -55 -39 -94t-94 -39zM919 107q0 44 -31 75.5t-76 31.5h-107q-44 0 -75.5 -31.5t-31.5 -75.5v-107q0 -45 31.5 -76t75.5 -31h107q45 0 76 31t31 76v107zM826 346h-134
q-56 0 -95 39t-39 95v134q0 55 39 94t95 39h134q55 0 94 -39t39 -94v-134q0 -56 -39 -95t-94 -39zM919 601q0 44 -31 75.5t-76 31.5h-107q-44 0 -75.5 -31.5t-31.5 -75.5v-107q0 -45 31.5 -76t75.5 -31h107q45 0 76 31t31 76v107zM332 -147h-134q-55 0 -94 39t-39 94v134
q0 56 39 95t94 39h134q56 0 95 -39t39 -95v-134q0 -55 -39 -94t-95 -39zM421 107q0 44 -31.5 75.5t-75.5 31.5h-107q-45 0 -76 -31.5t-31 -75.5v-107q0 -45 31 -76t76 -31h107q44 0 75.5 31t31.5 76v107zM332 346h-134q-55 0 -94 39t-39 95v134q0 55 39 94t94 39h134
q56 0 95 -39t39 -94v-134q0 -56 -39 -95t-95 -39zM421 601q0 44 -31.5 75.5t-75.5 31.5h-107q-45 0 -76 -31.5t-31 -75.5v-107q0 -45 31 -76t76 -31h107q44 0 75.5 31t31.5 76v107z" />
    <glyph glyph-name="uniE60F" unicode="&#xe60f;" 
d="M846 674h-65v-44q14 -15 17 -34q1 -3 1 -7q0 -1 1 -3v-4q0 -30 -21 -51t-51 -21t-51 21t-21 51q0 28 19 48v44h-318v-47q12 -15 15 -35v-2v-1v-1v-2v-1v-3q0 -13 -7 -31q-6 -15 -18 -25q-22 -18 -53 -16q-12 1 -26 9q-17 9 -25 20q-9 12 -12 26q-2 9 -2 17v0q0 30 21 51
v41h-73q-29 0 -49 -20.5t-20 -49.5v-683q0 -29 20 -49.5t49 -20.5h668q29 0 49 20.5t20 49.5v683q0 29 -20 49t-48 21zM184 -75v541h655v-541h-655zM727 548q16 0 27.5 8.5t11.5 21.5v133q0 13 -11.5 21.5t-27.5 8.5t-27 -8.5t-11 -21.5v-133q0 -13 11 -21.5t27 -8.5z
M302 548q16 0 27.5 8.5t11.5 21.5v133q0 13 -11.5 21.5t-27.5 8.5t-27 -8.5t-11 -21.5v-133q0 -13 11 -21.5t27 -8.5zM419 203q60 15 62 81q-8 72 -108 82q-103 -4 -108 -92h70q5 39 38 44q37 -2 39 -44q2 -49 -77 -51v-45q75 2 77 -53q-3 -46 -41 -49q-38 5 -40 49h-70
q0 -93 108 -93q104 7 113 84q0 69 -63 87zM632 366q-106 -2 -110 -170q4 -162 110 -164q113 2 115 164q-4 168 -115 170zM634 76q-42 2 -42 120q0 120 42 122q41 -2 41 -122q0 -118 -41 -120z" />
    <glyph glyph-name="uniE610" unicode="&#xe610;" 
d="M772 315l-235 2q1 176 1 232q0 93 69.5 159.5t164.5 66.5q93 0 159 -66t66 -160t-66.5 -164t-158.5 -70zM775 708q-65 0 -116.5 -46.5t-51.5 -109.5v-1v1v-167q121 -1 168 -1q64 0 110 51t46 117q0 64 -45.5 110t-110.5 46zM259 -194q-94 0 -162 68.5t-68 161.5
q0 94 68 164t162 70q30 0 88 -0.5t103 -0.5t43 0q-1 -177 -1 -233q0 -93 -70 -161.5t-163 -68.5zM423 33v168h-168q-64 0 -110 -50.5t-46 -116.5q0 -65 45.5 -110.5t110.5 -45.5t116.5 46t51.5 109l1 2v-1q-1 0 -1 -1zM29 549q0 94 68 162t162 68q93 0 163 -68t70 -162
l1 -232q-166 -2 -234 -2q-94 0 -162 70t-68 164zM423 552h1v-1l-1 1q0 63 -51.5 109.5t-116.5 46.5t-110.5 -46t-45.5 -110q0 -66 46 -117t110 -51q47 0 168 1v167zM1001 36q0 -93 -68 -161.5t-161 -68.5q-94 0 -164 68.5t-70 161.5q0 56 -1 233q166 1 235 1q93 0 161 -70
t68 -164zM607 35v-2q0 -63 51.5 -109t116.5 -46t110.5 45.5t45.5 110.5q0 66 -46 116.5t-110 50.5h-168v-168v1v1z" />
    <glyph glyph-name="uniE611" unicode="&#xe611;" horiz-adv-x="1031" 
d="M544 351q-17 0 -27.5 -10t-15.5 -23t-18.5 -26t-34.5 -18l-19 -6q-16 -3 -20.5 -4t-10.5 -4.5t-7 -8.5t-1 -15q0 -32 26 -32h77v-211q0 -26 8 -38.5t30 -12.5q39 0 39 51v320q0 38 -26 38zM294 562h13q15 0 23.5 9t8.5 23v154q0 14 -8.5 23t-23.5 9h-13q-14 0 -23 -9
t-9 -23v-160q0 -10 9.5 -18t22.5 -8zM710 562h13q15 0 23.5 9t8.5 23v154q0 14 -8.5 23t-23.5 9h-13q-14 0 -23 -9t-9 -23v-160q0 -9 11 -17.5t21 -8.5zM890 703h-84v-57h84q28 0 49 -21t21 -50v-64h-902v64q0 29 20.5 50t49.5 21h83v57h-77q-56 0 -95 -40t-39 -94v-621
q0 -54 39 -94t95 -40h762q54 0 94 38.5t40 95.5v621q-5 54 -44.5 94t-95.5 40zM890 -122h-756q-28 0 -49 20.5t-21 49.5v499h902v-493q0 -33 -21.5 -54.5t-54.5 -21.5zM384 703h256v-57h-256v57z" />
    <glyph glyph-name="uniE612" unicode="&#xe612;" 
d="M502 243q-70 0 -120 58.5t-50 140.5t50 140.5t120 58.5t120 -58.5t50 -140.5t-50 -140.5t-120 -58.5zM501.5 581q-45.5 0 -77.5 -41t-32 -98t32 -98t77.5 -41t78 41t32.5 98t-32.5 98t-78 41zM574 -60h-34h-76q-43 0 -64.5 0.5t-52 4t-50.5 13t-36 25.5q-40 40 -40 123
q0 62 43 113q8 9 20.5 10t22 -7t10.5 -20.5t-7 -21.5q-29 -35 -29 -74q0 -58 22 -81q13 -12 39.5 -18t49.5 -6.5t71 -0.5h77q48 0 71.5 0.5t50 6.5t38.5 18q23 23 23 81q0 14 -10 36.5t-22 33.5q-10 9 -11 21t7.5 21.5t21 10.5t21.5 -7q23 -20 38 -54.5t15 -61.5
q0 -84 -40 -123q-27 -27 -66.5 -35t-102.5 -8z" />
    <glyph glyph-name="uniE613" unicode="&#xe613;" 
d="M575 206q43 28 46 84q-9 95 -102 101q-97 -6 -104 -99q0 -24 22 -24q22 -2 24 24q4 54 56 56q52 -4 56 -63q0 -54 -56 -64q-28 -7 -26 -22q0 -19 30 -19q69 0 69 -74q-6 -69 -75 -73q-50 0 -65 49q-11 26 -28 26q-22 -4 -22 -28q17 -84 117 -86q119 4 125 116
q-4 72 -67 96zM846 632h-74v32q0 12 -9 21t-21.5 9t-21 -9t-8.5 -21v-32h-93v32q0 12 -9 21t-21.5 9t-21 -9t-8.5 -21v-32h-94v32q0 12 -8.5 21t-21 9t-21.5 -9t-9 -21v-32h-93v32q0 12 -8.5 21t-21.5 9q-12 0 -21 -9t-9 -21v-32h-74q-40 0 -68 -28t-28 -67v-203v-151v-182
q0 -39 28 -67t68 -28h668q40 0 68 28t28 67v182v151v203q0 39 -28 67t-68 28zM178 583h74v-38q0 -12 9 -21t21 -9q13 0 21.5 9t8.5 21v38h93v-38q0 -12 9 -21t21.5 -9t21 9t8.5 21v38h94v-38q0 -12 8.5 -21t21 -9t21.5 9t9 21v38h93v-38q0 -12 8.5 -21t21 -9t21.5 9t9 21v38
h74q20 0 33.5 -13.5t13.5 -32.5v-57h-762v57q0 19 13.5 32.5t33.5 13.5zM893 183v-182q0 -19 -13.5 -32.5t-33.5 -13.5h-668q-20 0 -33.5 13.5t-13.5 32.5v182v151v96h762v-96v-151z" />
    <glyph glyph-name="uniE614" unicode="&#xe614;" 
d="M903 330h-259q-43 0 -73 30t-30 73v275q0 43 30 73.5t73 30.5h259q42 0 72.5 -30.5t30.5 -73.5v-275q0 -43 -30.5 -73t-72.5 -30zM644 750q-17 0 -29 -12t-12 -30v-275q0 -17 12 -29t29 -12h259q17 0 29 12t12 29v275q0 18 -12 30t-29 12h-259zM372 330h-258
q-43 0 -73.5 30t-30.5 73v275q0 43 30.5 73.5t73.5 30.5h258q43 0 73.5 -30.5t30.5 -73.5v-275q0 -43 -30.5 -73t-73.5 -30zM114 750q-17 0 -29.5 -12t-12.5 -30v-275q0 -17 12.5 -29t29.5 -12h258q17 0 29.5 12t12.5 29v275q0 18 -12.5 30t-29.5 12h-258zM372 -211h-258
q-43 0 -73.5 30.5t-30.5 73.5v275q0 43 30.5 73.5t73.5 30.5h258q43 0 73.5 -30.5t30.5 -73.5v-275q0 -43 -30.5 -73.5t-73.5 -30.5zM114 210q-17 0 -29.5 -12.5t-12.5 -29.5v-275q0 -17 12.5 -29t29.5 -12h258q17 0 29.5 12t12.5 29v275q0 17 -12.5 29.5t-29.5 12.5h-258z
M784 -190q-96 0 -164.5 68t-68.5 164t68.5 164t164.5 68t164 -68t68 -164t-68 -164t-164 -68zM783.5 212q-70.5 0 -120 -49.5t-49.5 -120t49.5 -120.5t120 -50t120 50t49.5 120.5t-49.5 120t-120 49.5z" />
    <glyph glyph-name="uniE615" unicode="&#xe615;" 
d="M663 324q54 37 85.5 94.5t31.5 124.5q0 110 -81 189t-195 79t-195 -79t-81 -189q0 -69 33.5 -128t89.5 -95q-104 -46 -168.5 -140t-64.5 -209q0 -48 35.5 -84.5t94 -57t125.5 -30.5t139 -10t139 10t125.5 30.5t94 57t35.5 84.5q0 117 -67 213t-176 140zM307 542.5
q0 78.5 58 134t139.5 55.5t139 -55.5t57.5 -134t-57.5 -134t-139 -55.5t-139.5 55.5t-58 134zM512 -132q-135 0 -225 32t-90 71q0 125 92.5 214t222.5 89t222.5 -89t92.5 -214q0 -39 -90 -71t-225 -32z" />
    <glyph glyph-name="uniE616" unicode="&#xe616;" 
d="M920 -108q0 -17 -12 -29t-29 -12q-15 -1 -25.5 9.5t-13.5 20.5l-3 11q-15 120 -104 201.5t-211 85.5h-4h-6h-6h-5q-121 -4 -210.5 -85.5t-104.5 -201.5q0 -2 -0.5 -4.5t-3 -10t-7 -12.5t-12.5 -9.5t-19 -4.5q-17 0 -29 12t-12 29q1 14 3 19q15 106 80.5 191t163.5 127
q-58 39 -92 101.5t-34 135.5q0 119 84.5 203t203.5 84t203 -84t84 -203q0 -72 -34 -134.5t-91 -102.5q98 -42 163.5 -128t80.5 -194q2 -7 2 -12v-3zM717 466q0 85 -60 145t-145 60t-145.5 -60t-60.5 -145t60.5 -145t145.5 -60t145 60t60 145z" />
    <glyph glyph-name="uniE617" unicode="&#xe617;" 
d="M534 217q-14 1 -27 1q-11 0 -22 -1q13 -2 26 -2q11 0 23 2zM705 235q43 40 67.5 94.5t24.5 115.5q0 118 -84 202t-202 84t-202 -84t-84 -202q0 -60 23.5 -114t65.5 -93q-102 -51 -167 -146.5t-73 -212.5h66q8 107 72.5 192t162.5 122q64 -34 136 -34q70 0 132 32
q97 -38 160 -122t71 -190h66q-8 115 -71.5 210t-163.5 146zM511 215q-95 0 -162.5 67.5t-67.5 162.5t67.5 162.5t162.5 67.5t162.5 -67.5t67.5 -162.5t-67.5 -162.5t-162.5 -67.5z" />
    <glyph glyph-name="uniE618" unicode="&#xe618;" 
d="M636 146q15 -15 36 -15q22 0 37.5 16t15.5 38q0 29 -24 44l1 1q-19 13 -43 24q46 39 72.5 94.5t26.5 118.5q0 115 -81 196.5t-196.5 81.5t-196.5 -81.5t-81 -196.5q0 -63 26.5 -120t72.5 -95q-98 -48 -158 -134t-68 -202v0v2q0 -22 15.5 -37t38 -15t38 14.5t15.5 36.5v-1
v0q12 119 96.5 194.5t200.5 75.5q86 0 156 -42v2zM309 467q0 71 50.5 121t121 50t120.5 -50t50 -121t-50 -121t-120.5 -50t-121 50t-50.5 121zM833 -78zM780 -78q0 22 15.5 37.5t37.5 15.5t38 -15.5t16 -37.5t-16 -37.5t-38 -15.5t-37.5 15.5t-15.5 37.5zM936 219l-16 16
q-12 12 -29.5 12t-30.5 -12l-237 -238q-19 -18 -47 -65.5t-17 -58.5l15 -15q11 -11 58.5 17t65.5 47l238 237q12 12 12 30t-12 30z" />
    <glyph glyph-name="uniE619" unicode="&#xe619;" 
d="M512 -186q-6 0 -15 5q-9 4 -33.5 17.5t-73 44.5t-97.5 69t-103 92.5t-95 112.5t-68 132t-27 148q0 122 86.5 208.5t207.5 86.5q62 0 119 -25.5t99 -70.5q41 46 98 71t120 25q121 0 207.5 -86.5t86.5 -208.5q0 -74 -27 -148t-68 -132t-95 -112.5t-103 -92.5t-97.5 -69
t-73 -44.5t-33.5 -17.5q-9 -5 -15 -5zM294 663q-94 0 -161 -66.5t-67 -161.5q0 -59 21 -119.5t53 -109t77 -96.5t86 -82t86.5 -66t72.5 -48.5t50 -28.5q23 12 50 28.5t72.5 48.5t86.5 66t86 82t77 96.5t53 109t21 119.5q0 95 -67 161.5t-161 66.5q-58 0 -108 -27t-82 -75
q-10 -14 -28 -14t-28 14q-32 48 -82 75t-108 27z" />
    <glyph glyph-name="uniE61A" unicode="&#xe61a;" 
d="M1008 414l-59 -57l-162 160l58 57q14 13 32 14.5t30 -9.5l106 -104q11 -12 9.5 -29.5t-14.5 -31.5v0zM760 489l162 -159l-387 -380q-6 -6 -13 -8q-2 -1 -3 -1l-201 -63q-10 -3 -15.5 3t-3.5 15l65 198q0 2 1 2q2 10 8 16l74 67h-245q-8 0 -14 7t-6 14.5t6.5 15t13.5 7.5
h284zM486 -37l-100 98l-27 -83l42 -42zM754 427q-11 10 -21 0l-302 -297q-10 -10 0.5 -20t20.5 0l302 296q10 10 0 21v0zM80 -152q-20 0 -20 14v808q0 4 1 7t2 5t4.5 2.5t4.5 0.5h7h7h70v-27q0 -7 7.5 -13t16 -6t15.5 6t7 13v27h104v-27q0 -7 7 -13t15.5 -6t16 6t7.5 13v27
h96v-27q0 -7 7 -13t15.5 -6t15.5 6t7 13v27h97v-27q0 -7 7 -13t15.5 -6t15.5 6t7 13v27h81q17 0 17 -15v-134l58 58v76q0 31 -21.5 52t-53.5 21h-81v50q0 7 -7 13t-15.5 6t-15.5 -5.5t-7 -13.5v-50h-97v50q0 7 -7 13t-15.5 6t-15.5 -5.5t-7 -13.5v-50h-96v50q0 8 -7.5 13.5
t-16 5.5t-15.5 -5.5t-7 -13.5v-50h-104v50q0 8 -7 13.5t-15.5 5.5t-16 -5.5t-7.5 -13.5v-50h-70q-42 0 -64 -20t-22 -53v-808q0 -31 24 -52t58 -21h634q32 0 53.5 21t21.5 52v280l-58 -57v-223q0 -14 -17 -14h-636zM583 524h-383q-7 0 -12.5 -7.5t-5.5 -15.5t5.5 -15
t12.5 -7h383q7 0 12.5 7t5.5 15t-5.5 15.5t-12.5 7.5v0zM583 376h-383q-7 0 -12.5 -7t-5.5 -15t5.5 -15t12.5 -7h383q7 0 12.5 7t5.5 15t-5.5 15t-12.5 7v0zM583 376z" />
    <glyph glyph-name="uniE61B" unicode="&#xe61b;" 
d="M780 495h-536q-20 0 -34.5 10.5t-14.5 25.5t14.5 26t34.5 11h536q20 0 34.5 -10.5t14.5 -25.5t-14.5 -26t-34.5 -11zM780 349h-536q-20 0 -34.5 10.5t-14.5 25.5t14.5 25.5t34.5 10.5l536 1q20 0 34.5 -11t14.5 -26t-14.5 -25.5t-34.5 -10.5zM975 176v-2v-4q0 -4 -2 -8.5
t-4 -7.5t-5.5 -7.5t-5.5 -7t-6 -6.5l-5 -4l-318 -317q-12 -8 -27 -9.5t-28 10.5t-13 32v263q1 38 27.5 65t64.5 29h249v486q0 28 -12 39.5t-41 11.5h-689q-38 0 -38 -44v-735q0 -61 19 -79.5t78 -18.5l123 -1q20 0 34 -10.5t14 -25.5t-14 -25.5t-34 -10.5l-199 -1
q-37 1 -64.5 27.5t-29.5 64.5v837q1 38 28 65.5t66 28.5l735 1q39 0 67 -27.5t30 -67.5v-541zM727 129q-49 0 -71 -17t-22 -61v-43v-54q0 -24 0 -23l198 199h-8q-9 -1 -22 -1h-28h-27h-20z" />
    <glyph glyph-name="uniE61C" unicode="&#xe61c;" 
d="M444 437h-171v-69h171v69zM444 573h-171v-68h171v68zM273 232h478v68h-478v-68zM683 812h-512q-39 0 -71 -31.5t-32 -70.5v-820q0 -39 32 -70.5t71 -31.5h682q39 0 71 31.5t32 70.5v649zM649 744l204 -205h-136q-26 0 -47 21t-21 47v137zM887 -75q0 -26 -21 -47.5
t-47 -21.5h-614q-26 0 -47 21.5t-21 47.5v750q0 26 21 47.5t47 21.5h375v-205q0 -39 15 -53.5t54 -14.5h238v-546zM273 95h478v68h-478v-68zM273 -41h478v68h-478v-68z" />
    <glyph glyph-name="uniE61D" unicode="&#xe61d;" 
d="M449 219q119 0 198.5 62.5t77.5 160.5q0 88 -81.5 150t-199.5 62t-201 -62t-83 -150q0 -58 28.5 -110t82.5 -80v-1q0 -30 -37 -94q-1 -3 -1 -6q0 -7 4.5 -11.5t11.5 -4.5h3h1q37 6 86.5 38t63.5 49q14 -3 31 -3h7h8zM385 266l-28 -23q-17 -20 -59 -46q7 19 10.5 32.5
t3.5 18.5l1 4l2 27l-24 12q-43 22 -65 64t-22 87q0 70 70 119t170 49t169 -49t69 -119q0 -78 -66 -129t-166 -51q-20 -1 -41 3zM856 266q0 91 -80 138q-2 -20 -11 -47q27 -19 37.5 -40t10.5 -51q0 -69 -73 -106l-22 -11q3 -56 6 -70q-19 14 -33 28t-19 22l-5 7l-23 -3
l-33 -2q-85 0 -141 44l-62 -1q33 -41 85.5 -63.5t117.5 -22.5h7h5q15 0 27 2q15 -18 51 -45t67 -32h2h2q5 0 9.5 4t4.5 10q0 2 -2 5q-7 13 -15 41t-8 47v1v1q95 48 95 144z" />
    <glyph glyph-name="uniE61E" unicode="&#xe61e;" 
d="M288 412q-23 0 -39.5 -16.5t-16.5 -39.5t16.5 -39.5t39.5 -16.5t39.5 16.5t16.5 39.5t-16.5 39.5t-39.5 16.5zM512 20q-162 0 -277 98.5t-115 237.5t115 237.5t277 98.5t277 -98.5t115 -237.5q0 -84 -45 -156.5t-122 -118.5l1 -130l-131 79q-49 -10 -95 -10zM512 748
q-186 0 -317 -115t-131 -277t131 -277t317 -115q41 0 84 7l196 -119v198q78 55 123 135t45 171q0 106 -60 196.5t-163 143t-225 52.5zM736 412q-23 0 -39.5 -16.5t-16.5 -39.5t16.5 -39.5t39.5 -16.5t39.5 16.5t16.5 39.5t-16.5 39.5t-39.5 16.5zM512 412q-23 0 -39.5 -16.5
t-16.5 -39.5t16.5 -39.5t39.5 -16.5t39.5 16.5t16.5 39.5t-16.5 39.5t-39.5 16.5z" />
    <glyph glyph-name="uniE61F" unicode="&#xe61f;" 
d="M768 429q0 -40 -28 -68t-68 -28t-68 28t-28 68t28 68t68 28t68 -28t28 -68zM640 429q0 -13 9.5 -22.5t22.5 -9.5t22.5 9.5t9.5 22.5t-9.5 22.5t-22.5 9.5t-22.5 -9.5t-9.5 -22.5zM256 429q0 40 28 68t68 28t68 -28t28 -68t-28 -68t-68 -28t-68 28t-28 68zM352 397
q13 0 22.5 9.5t9.5 22.5t-9.5 22.5t-22.5 9.5t-22.5 -9.5t-9.5 -22.5t9.5 -22.5t22.5 -9.5zM864 77h-256l-240 -240q-14 -14 -32.5 -7.5t-23.5 22.5t8 33l256 256h256q28 0 46 18t18 46v448q0 30 -17 47t-47 17h-640q-30 0 -47 -17.5t-17 -46.5v-448q0 -30 16.5 -47
t47.5 -17h96q21 0 28.5 -16t-1.5 -32t-27 -16h-128q-35 0 -65.5 30.5t-30.5 65.5v512q0 35 30.5 65.5t65.5 30.5h704q35 0 65.5 -30.5t30.5 -65.5v-512q0 -35 -30.5 -65.5t-65.5 -30.5z" />
    <glyph glyph-name="uniE620" unicode="&#xe620;" horiz-adv-x="1025" 
d="M985 724q-14 -1 -56.5 -2.5t-62.5 -1.5q-27 1 -83 2q-57 1 -86 2l-34 1l16 -71l17 -3q38 -7 78 -12q-12 -43 -39 -109q-37 -92 -80 -187q-44 -95 -85 -181q-11 -24 -19 -41q-11 23 -26 56q-47 103 -109 248q-53 126 -89 217q27 4 75 9l19 1l15 72h-32q-32 0 -206 -5
q-39 2 -78 3q-51 1 -71 2l-34 2l14 -71l16 -4q3 0 20 -4q16 -2 28 -5q6 -2 12 -3q14 -24 57 -112q54 -114 127 -271q73 -158 130 -282q59 -125 65 -135l26 -40l20 43q45 98 99.5 210t120.5 242q65 130 117 228q44 84 63 115q26 6 58 15l13 3l24 73z" />
    <glyph glyph-name="uniE621" unicode="&#xe621;" 
d="M738 556q67 0 157 55v-449q-90 -55 -157 -55q-92 0 -158 41t-157 41q-71 0 -157 -53v449q86 53 157 53q92 0 158 -41t157 -41zM178 686q20 0 34 -14t14 -34v-724h-97v724q0 20 14.5 34t34.5 14z" />
    <glyph glyph-name="uniE622" unicode="&#xe622;" 
d="M938 319q1 -5 -1 -11l-73 -322q-1 -6 -5 -11q-12 -25 -35 -39q-25 -16 -54 -16l-469 1q-3 -1 -5 -1t-5 1h-125q-3 -1 -5 -1q-14 0 -24 10t-10 24v406q0 14 10 24t24 10q2 0 4 -1l112 1q78 6 132 62t56 135v8q0 41 28.5 70t69.5 29q35 0 61.5 -21.5t34.5 -54.5
q9 -39 9 -78q0 -60 -20 -116l189 -1h5q53 -2 81 -47q18 -28 15 -61zM195 -12h67v338h-67v-338zM866 344q-10 17 -29 16v0h-239q-14 0 -23.5 10t-9.5 24q0 8 3 15q20 38 29 82q1 2 1.5 6t1.5 17.5t1 29.5q0 12 -1 25.5t-2 20.5l-2 7v1q0 13 -9 22.5t-22.5 9.5t-22.5 -9.5
t-9 -22.5v-2q0 -26 -5 -54q-3 -15 -8 -31q-22 -65 -72.5 -112.5t-117.5 -64.5v-346h440h5q7 1 12 4q9 6 13 15l70 310q4 15 -4 27z" />
    <glyph glyph-name="uniE623" unicode="&#xe623;" 
d="M189 356v-375h-113v375h113zM264 431h-203q-25 0 -42.5 -17t-17.5 -41v-409q0 -24 17.5 -41t42.5 -17h203v525zM616 653q27 0 43 -23q16 -24 19 -65t-8 -82l-25 -95h98h116q61 0 80 -22q13 -16 6 -52q-4 -23 -61 -266l-2 -7q-4 -15 -7 -23q-7 -22 -20.5 -31t-35.5 -9
h-396v408q64 27 99.5 79t35.5 118q0 17 3.5 30.5t17.5 26.5t37 13zM616 728q-65 0 -99 -42.5t-34 -102.5q0 -32 -12.5 -58.5t-32.5 -42t-36 -23.5t-33 -13l-21 -6v-537h471q94 0 127 89q4 13 9 32l2 6q0 1 9.5 43t20.5 88t20.5 88.5t11.5 49.5q14 72 -23 116q-41 48 -137 48
h-116q15 49 10 108.5t-32 100.5q-38 56 -105 56z" />
    <glyph glyph-name="uniE624" unicode="&#xe624;" 
d="M916 327q-5 34 -28 59t-60 36q-31 11 -104 28q31 45 48 92.5t17 84.5t-12 67q-23 54 -78 54q-23 0 -40.5 -8.5t-28.5 -26t-16 -29.5t-12 -33q-4 -12 -6 -19q-9 -28 -52.5 -70.5t-105.5 -76.5q-64 -36 -129 -88q-14 -11 -14 -28v-351q0 -19 15 -30q37 -27 145 -47.5
t184 -20.5q54 0 77 13q51 29 137 268q73 56 63 126v0zM169 432q-24 0 -41.5 -17t-17.5 -42v-359q0 -24 17.5 -41.5t42 -17.5t41.5 17.5t17 41.5v359q0 25 -17 42t-42 17v0zM169 432z" />
    <glyph glyph-name="uniE625" unicode="&#xe625;" 
d="M474 640h-295h-8h-22q-7 0 -18.5 -2t-16.5 -6t-9 -11.5t-4 -19.5v-590q0 -32 22 -54t53 -22h597q30 0 52 22t22 54v151h100v-252q0 -31 -22 -53.5t-53 -22.5h-796q-31 0 -53 22.5t-22 53.5v756q0 31 22 53t53 22h398v-101zM192 147q1 8 3 22.5t14.5 56t32 79t58.5 83.5
t90.5 79t132.5 55t179 21v198l319 -298l-319 -298v196q0 1 -17.5 2.5t-48 2t-70 -3t-87.5 -16t-95.5 -33t-98.5 -58.5t-93 -88z" />
    <glyph glyph-name="uniE626" unicode="&#xe626;" 
d="M576 767q-111 0 -207.5 -51.5t-159 -141t-77.5 -198.5h-69q-20 0 -36 -11t-23.5 -29.5t-3.5 -38t17 -33.5l129 -130q18 -19 45 -19t45 19l129 130q14 14 17.5 33.5t-4 38t-23.5 29.5t-36 11h-57q22 112 110.5 186.5t203.5 74.5q87 0 161 -44t117 -119t43 -163.5
t-43 -163.5t-117 -119t-161 -44q-74 0 -139 33t-110 91l-91 -85l-3 -3l-2 -1q63 -77 153 -121t192 -44q92 0 175 36t143 97.5t96 146t36 177t-36 177t-96 146t-143 97.5t-175 36zM576.5 506q-26.5 0 -45.5 -19t-19 -46v-130q0 -27 19 -46.5t45 -19.5h129q26 0 45 19.5
t19 46.5t-19 46t-45 19h-65v65q0 27 -18.5 46t-45 19z" />
    <glyph glyph-name="uniE627" unicode="&#xe627;" 
d="M64 -20h895v-61h-895v61zM64 189h59v-270h-59v270zM900 189h59v-239h-59v239zM947 227h-306v57h241l-46 342h-648l-46 -342h211v-57h-277l61 457h749zM496 68q-85 0 -144 52t-59 136h58q0 -63 41.5 -97t103.5 -34q55 0 100.5 43t45.5 88h57q0 -68 -62 -128t-141 -60z" />
    <glyph glyph-name="uniE628" unicode="&#xe628;" 
d="M747 300q0 -39 27.5 -66.5t66 -27.5t66 27.5t27.5 66.5t-27.5 66.5t-66 27.5t-66 -27.5t-27.5 -66.5zM90 300q0 -39 27.5 -66.5t66 -27.5t66 27.5t27.5 66.5t-27.5 66.5t-66 27.5t-66 -27.5t-27.5 -66.5zM418 300q0 -39 27.5 -66.5t66.5 -27.5t66.5 27.5t27.5 66.5
t-27.5 66.5t-66.5 27.5t-66.5 -27.5t-27.5 -66.5z" />
    <glyph glyph-name="uniE629" unicode="&#xe629;" 
d="M552 299l231 232q8 8 8 19.5t-8 19.5t-19 8t-19 -8l-232 -232l-232 232q-8 8 -19 8t-19 -8t-8 -19.5t8 -19.5l231 -232l-231 -232q-8 -8 -8 -19t8 -19t19 -8t19 8l232 231l232 -231q8 -8 19 -8t19 8t8 19t-8 19z" />
    <glyph glyph-name="uniE62A" unicode="&#xe62a;" 
d="M704 -53q-9 0 -17 4l-191 100l-190 -100q-20 -11 -38 2.5t-15 35.5l37 212l-155 151q-16 16 -9 37t29 24l214 31l95 194q10 20 32.5 20t32.5 -20l95 -194l214 -31q22 -3 29 -24t-9 -37l-155 -151l37 -212q3 -22 -15 -35q-9 -7 -21 -7zM496.5 128q8.5 0 16.5 -4l143 -76
l-27 160q-3 18 10 32l116 113l-160 23q-19 3 -27 20l-72 145l-71 -145q-9 -17 -27 -20l-160 -23l116 -113q13 -14 10 -32l-28 -160l144 76q8 4 16.5 4z" />
    <glyph glyph-name="uniE62B" unicode="&#xe62b;" 
d="M750 168v1v0v-1zM906 357q13 14 2 29q-5 7 -14 9h-1l-249 36v1v-1l-1 1l-112 226q-9 16 -27 10q-8 -2 -13 -11l-111 -225l-2 -1l-248 -36q-8 -2 -13 -8t-5 -15t6 -15l181 -176v-1l-43 -247q-3 -19 15 -25q9 -3 17 1l224 117v0v0l223 -117q17 -9 29 7q5 7 4 16l-43 249z
M725 181v0v0zM675 198l38 -224l-201 105l-201 -105l38 224l-163 158l225 33l101 204l101 -204l225 -33z" />
    <glyph glyph-name="uniE62C" unicode="&#xe62c;" horiz-adv-x="1025" 
d="M1021 426q-6 17 -19.5 28.5t-31.5 14.5l-276 42l-124 264q-8 17 -23.5 27t-34.5 10t-34.5 -10t-23.5 -27l-124 -264l-276 -42q-17 -3 -31 -14.5t-20 -28.5q-12 -37 15 -65l202 -206l-48 -293q-6 -39 26.5 -62t67.5 -4l246 136l246 -136q14 -8 31 -8q20 0 37 12
q33 23 26 62l-48 293l202 206q27 28 15 65zM690 221q-22 -23 -17 -55l32 -194l-162 89q-15 8 -31 8t-31 -8l-161 -89l31 194q5 32 -17 55l-137 140l186 29q34 5 49 36l80 171l81 -171q14 -31 48 -36l186 -29z" />
    <glyph glyph-name="uniE62D" unicode="&#xe62d;" horiz-adv-x="1135" 
d="M1030 397q-6 18 -21 30t-34 15l-250 37l-109 226q-9 18 -26 28.5t-37 10.5t-37 -10.5t-26 -28.5l-108 -226l-250 -37q-20 -3 -35 -15t-21 -30q-13 -39 16 -69l184 -183l-43 -253q-3 -19 4.5 -37t24.5 -29q18 -13 40 -13q17 0 33 9l218 117l218 -117q16 -9 34 -9
q22 0 40 13q16 11 24 29t4 37l-42 253l183 183q30 30 16 69zM781 193q-24 -25 -19 -58l43 -254l-218 117q-16 9 -34 9t-33 -9l-218 -117l42 254q6 33 -19 58l-183 182l250 38q37 5 53 38l108 225l109 -225q16 -33 52 -38l250 -38z" />
    <glyph glyph-name="uniE62E" unicode="&#xe62e;" 
d="M861 286q0 -24 -17 -41.5t-41 -17.5h-583q-24 0 -41 17.5t-17 41.5v28q0 24 17 41.5t41 17.5h583q24 0 41 -17.5t17 -41.5v-28zM526 650q24 0 41 -17.5t17 -40.5v-584q0 -23 -17 -40.5t-41 -17.5h-29q-24 0 -41 17.5t-17 40.5v584q0 23 17 40.5t41 17.5h29z" />
    <glyph glyph-name="uniE62F" unicode="&#xe62f;" 
d="M944 320l-165 -142q-16 -16 -12 -39l38 -227q5 -27 -14 -41q-13 -10 -29 -10q-11 0 -22 6l-208 112q-21 11 -41 0l-200 -112q-26 -14 -50 4q-28 19 -24 41l48 232q4 23 -13 39l-174 137q-21 21 -12 49t39 33l226 39q23 4 33 25l104 219q13 27 43 27t43 -27l100 -219
q11 -21 34 -25l230 -39q29 -5 38.5 -33t-12.5 -49z" />
    <glyph glyph-name="uniE630" unicode="&#xe630;" 
d="M34 665h-25v-25v-598q0 -52 36.5 -89t88.5 -37h794h25v25v484q0 10 -7.5 17.5t-17.5 7.5t-17.5 -7.5t-7.5 -17.5v-484l25 25h-794q-31 0 -53 22.5t-22 53.5v598l-25 -25h565q10 0 17.5 7t7.5 17.5t-7.5 18t-17.5 7.5h-565zM437 302l-5 -6v-9l-4 -149l-1 -36l34 12l144 51
l7 3l4 6l387 511l16 20l-21 16l-129 97l-19 15l-15 -20zM840 778l128 -98l-4 36l-387 -511l11 8l-143 -52l33 -24l4 149l-6 -15l398 511zM891 585l29 41l-112 82l-29 -41z" />
    <glyph glyph-name="uniE631" unicode="&#xe631;" 
d="M887 773q30 0 51.5 -21.5t21.5 -52.5v-467l24 25h-847q-30 0 -51.5 21.5t-21.5 52.5v467l-24 -25h847zM16 822v-24v-467q0 -51 35.5 -87t85.5 -36h847h24v24v467q0 51 -35.5 87t-85.5 36h-847h-24zM196 -69q-7 -7 -6.5 -17.5t7.5 -17t17 -6.5t17 8l219 242q7 8 6.5 18
t-7.5 17t-17 6.5t-17 -8.5zM798 -102q7 -8 17 -8t17.5 6.5t8 17t-6.5 17.5l-219 242q-7 8 -17 8.5t-17.5 -6.5t-8 -17t6.5 -18zM442 792q0 -8 7 -13.5t17 -5.5t17 5.5t7 13.5v85q0 8 -7 13.5t-17 5.5t-17 -5.5t-7 -13.5v-85zM515 589q10 0 17 7t7 17.5t-7 17.5t-17 7h-356
q-10 0 -17.5 -7t-7.5 -17.5t7.5 -17.5t17.5 -7h356zM515 431q10 0 17 7t7 17.5t-7 17.5t-17 7h-356q-10 0 -17.5 -7t-7.5 -17.5t7.5 -17.5t17.5 -7h356zM680 344q78 61 78 174v161q0 10 -7 17.5t-17 7.5t-17 -7.5t-7 -17.5v-161q0 -89 -59 -136q-19 -14 -41 -23
q-11 -4 -18 -5q-9 -2 -15 -10.5t-4 -18.5t10.5 -16t18.5 -4q39 8 78 39zM753 663q6 8 5 18.5t-8.5 17t-17.5 5.5t-17 -9l-109 -135q-7 -8 -6 -18t9 -16.5t18 -5.5t16 9zM753 695q-7 8 -17 9t-17.5 -5.5t-8.5 -17t5 -18.5l110 -134q6 -8 16 -9t18 5.5t9 16.5t-6 18z" />
    <glyph glyph-name="uniE632" unicode="&#xe632;" horiz-adv-x="1025" 
d="M690 533.5q0 74.5 -52 126.5t-126 52t-126.5 -52t-52.5 -126.5t52.5 -127t126.5 -52.5t126 52.5t52 127zM376 533.5q0 56.5 40 96.5t96 40t95.5 -40t39.5 -96.5t-39.5 -96.5t-95.5 -40t-96 40t-40 96.5zM197 121v-15h638v15q0 52 -24 103.5t-65 90.5t-99.5 61.5
t-122.5 17.5q-5 0 -17 -4.5t-17 -5.5q-4 0 4 -6q10 -6 10 -10q5 0 8 -7t8 -7q111 0 187 -66t76 -158l15 15h-286l-279 -1l16 -16q0 56 40.5 106.5t96.5 85.5q5 3 6.5 11t-1.5 12q-9 12 -28 6q-61 -20 -113.5 -89.5t-52.5 -138.5zM512 882q-104 0 -198.5 -40.5t-163.5 -108.5
t-109.5 -163t-40.5 -199t40.5 -198.5t109.5 -163t163.5 -109t198.5 -40.5q179 0 319 111q8 7 9.5 17t-5 18t-17 9.5t-18.5 -5.5q-126 -100 -288 -100q-94 0 -179.5 36.5t-147.5 98.5t-98.5 147t-36.5 179t36.5 179.5t98.5 147.5t147.5 98.5t179.5 36.5t180 -36.5
t147.5 -98.5t98 -147.5t36.5 -179.5q0 -132 -69 -243q-6 -9 -3.5 -19t11.5 -15.5t19 -3t15 10.5q77 124 77 270q0 104 -40.5 199t-109 163t-163.5 108.5t-199 40.5z" />
    <glyph glyph-name="uniE633" unicode="&#xe633;" 
d="M512.5 390q142.5 0 259 28.5t182.5 78t66 110.5t-66 111t-182.5 78.5t-259 28.5t-259 -28.5t-182.5 -78.5t-66 -111t66 -110.5t182.5 -78t259 -28.5zM512.5 770q96.5 0 182.5 -14.5t144 -38t92 -52.5t34 -57.5t-34 -57.5t-92 -52.5t-144 -38t-182.5 -14.5t-182.5 14.5
t-144 38t-92 52.5t-34 57.5t34 57.5t92 52.5t144 38t182.5 14.5zM512.5 160q142.5 0 258.5 28t181.5 77.5t65.5 110.5q0 47 -43 90h-1v0v1q-8 6 -17 6q-10 0 -17.5 -7t-7.5 -18q0 -10 8 -18q26 -26 26 -54q0 -29 -34 -58.5t-92 -53t-144.5 -38t-183 -14.5t-183 14.5
t-144.5 38t-92 53t-34 58.5q0 31 26 55h1l1 1v0q6 7 6 17t-7 17.5t-17.5 7.5t-17.5 -8h-1q-43 -42 -43 -90q0 -61 65.5 -110.5t181.5 -77.5t258.5 -28zM975 237l-1 1q-7 6 -17 6t-17.5 -7t-7.5 -18q0 -10 9 -18h-1q26 -26 26 -54q0 -29 -33.5 -58.5t-92 -53t-145 -38
t-183 -14.5t-183 14.5t-144.5 38t-92 53t-34 58.5q0 31 27 54v1h1v1q7 7 7 17t-7.5 17t-18 7t-17.5 -7q-44 -42 -44 -90q0 -61 66 -110.5t182 -77.5t258 -28t258 28t181.5 77.5t65.5 110.5q0 47 -43 90v0z" />
    <glyph glyph-name="uniE634" unicode="&#xe634;" 
d="M329 463q-15 0 -26 -10.5t-11 -26t11 -26.5t26 -11h368q16 0 26.5 11t10.5 26.5t-10.5 26t-26.5 10.5h-368zM845 794h-664q-45 0 -77.5 -32.5t-32.5 -78.5v-74q0 -42 37 -63v-451q0 -46 32 -78.5t78 -32.5h590q46 0 78 32.5t32 78.5q0 15 -10.5 26t-26 11t-26 -11
t-10.5 -26.5t-11 -26t-26 -10.5h-590q-15 0 -26 10.5t-11 26.5v442h664v-290q0 -15 10.5 -26t26 -11t26 11t10.5 26v299q37 21 37 63v74q0 46 -32.5 78.5t-77.5 32.5zM882 611h-737v73q0 16 10.5 26.5t25.5 10.5h664q15 0 26 -10.5t11 -26.5v-73z" />
    <glyph glyph-name="uniE635" unicode="&#xe635;" 
d="M910 451v-382q0 -44 -32 -75t-76 -30h-1h-431q-14 -5 -27.5 2.5t-17.5 22t3 28t22 17.5q10 3 20 0h433q15 0 25.5 10.5t10.5 25.5v325q-43 -17 -88 -7t-77 44q-12 12 -20 27q-7 -12 -16 -22q-48 -51 -117 -53.5t-120 44.5l-9 9q-9 10 -17 22q-8 -15 -19 -27
q-32 -34 -77.5 -44t-88.5 7v-185h541q14 4 27.5 -3t17.5 -21.5t-3 -28t-22 -17.5q-10 -3 -20 0h-541v-70q0 -15 11 -26t26 -11q14 5 27.5 -2.5t17.5 -22t-3 -27.5t-22 -18q-10 -3 -20 0q-44 -1 -76.5 29.5t-33.5 74.5v1v383q-28 42 -23 93q0 5 2 10l96 228q9 22 33 22h576
q24 0 33 -22l96 -228q2 -5 3 -10q5 -51 -23 -93zM250 734l-84 -201q-2 -32 20 -54q24 -24 57.5 -24t57.5 23q0 1 1 1q23 25 19 58q-1 6 0 11l40 186h-112h1zM606 554l-21 180h-142l-21 -180q-5 -40 23 -70q28 -29 67.5 -29.5t68.5 27.5l2 2q28 29 23 70zM778 734h-112
l40 -186v-11q-4 -33 19 -58q24 -24 57.5 -24t57.5 23l1 1q21 22 20 54z" />
    <glyph glyph-name="uniE636" unicode="&#xe636;" 
d="M945 346q-9 -19 -27 -30.5t-39 -11.5h-37v-291q0 -31 -22 -52.5t-52 -21.5h-512q-31 0 -52.5 21.5t-21.5 52.5v291h-37q-21 0 -39 11.5t-27 30.5t-6.5 40t16.5 38l93 96v2v161q-4 34 17.5 61.5t56.5 31.5h74q20 0 36.5 -11.5t24.5 -29.5l67 70q22 25 55 24q34 0 56 -26
l129 -134q11 -11 11 -26t-11 -26q-10 -10 -25.5 -10t-25.5 10l-133 140l-370 -380h37q30 0 52 -22t22 -52v-291h111v254q0 31 21.5 52.5t52.5 21.5h148q30 0 52 -21.5t22 -52.5v-254h111v291q0 30 21.5 52t52.5 22h37l-127 131q-10 11 -10 26t10 25q11 11 26 11t26 -11
l124 -135q14 -16 17 -37.5t-5 -40.5zM329 683q1 11 -4 20h-64q-5 -9 -5 -20v-88l75 76v12h-2zM586 267h-149v-255h149v255z" />
    <glyph glyph-name="uniE637" unicode="&#xe637;" 
d="M828 559l-256 259q-14 16 -35 9h-246q-46 0 -78 -32.5t-32 -78.5v-666q0 -46 32 -78.5t78 -32.5q16 0 27 11t11 27t-11 27.5t-27 11.5q-15 0 -25.5 10.5t-10.5 25.5v666q0 15 10.5 25.5t25.5 10.5h219v-149q0 -45 32 -77.5t78 -33.5h145v-446q0 -15 -10.5 -25t-24.5 -10
h-293q-15 0 -26 -11t-11 -26.5t11 -26t26 -10.5h292q46 0 78 32.5t31 78.5v475q4 20 -10 34zM619 570q-15 0 -25.5 10.5t-10.5 24.5v96l131 -131h-95zM620 197.5q0 14.5 -10.5 25t-25.5 10.5h-219q-15 0 -25.5 -10.5t-10.5 -25t10.5 -25t25.5 -10.5h219q15 0 25.5 10.5
t10.5 25zM657 312q15 0 25.5 10.5t10.5 25t-10.5 25t-25.5 10.5h-292q-15 0 -25.5 -10.5t-10.5 -25t10.5 -25t25.5 -10.5h292z" />
    <glyph glyph-name="uniE638" unicode="&#xe638;" 
d="M950 -7q-14 34 -47 77t-89.5 89t-115.5 64q110 92 110 309q-1 54 -21 106q-5 14 -19 20t-28 0.5t-20.5 -19.5t-0.5 -28q15 -39 15 -81q0 -144 -50.5 -216.5t-155.5 -77.5h-30q-105 5 -155.5 77.5t-50.5 216.5q0 92 65 156.5t156 64.5q54 0 102 -25l18 -10q13 -9 28 -5.5
t23.5 16t5 27.5t-15.5 23t-25 15q-64 33 -136 33q-122 0 -208 -86.5t-86 -208.5q0 -214 108 -306q-45 -14 -89.5 -44t-76.5 -64.5t-55 -66.5t-33 -56q-6 -14 -0.5 -28.5t19.5 -20t28.5 0t20.5 19.5q14 35 58.5 85.5t97.5 81.5q16 -51 76 -83.5t140 -32.5q42 0 83 11
q43 11 79 36q39 24 53 68q53 -31 96.5 -81.5t58.5 -84.5q4 -11 13.5 -17t21.5 -6q9 0 17 4q13 7 17.5 21t-2.5 27zM633 121q-26 -17 -56 -24q-32 -9 -64 -8q-59 0 -101.5 21.5t-45.5 48.5q18 3 35 3h221q18 0 37 -4q-5 -24 -26 -37zM588 494zM553 493.5q0 14.5 10.5 25
t25 10.5t25 -10.5t10.5 -25t-10.5 -25t-25 -10.5t-25 10.5t-10.5 25zM441 494zM406 493.5q0 14.5 10 25t25 10.5t25 -10.5t10 -25t-10 -25t-25 -10.5t-25 10.5t-10 25z" />
  </font>
</defs>
</svg>
